<svg xmlns="http://www.w3.org/2000/svg" xmlns:xlink="http://www.w3.org/1999/xlink" width="120" height="185" viewBox="0 0 120 185">
    <defs>
        <path id="9wybzd3oha" d="M0 0L119.7 0 119.7 30.1 0 30.1z"/>
        <path id="ly3tgj1sqc" d="M0.403 0.358L14.521 0.358 14.521 58.952 0.403 58.952z"/>
    </defs>
    <g fill="none" fill-rule="evenodd">
        <g>
            <g>
                <g transform="translate(-632 -405) translate(632 405) translate(0 154)">
                    <mask id="f20lfchd8b" fill="#fff">
                        <use xlink:href="#9wybzd3oha"/>
                    </mask>
                    <path fill="#EEEBE9" d="M107.612 2.675S66.706-4.241 58.259 4.169C49.81 12.58 7.866 2.133.446 14.976c-3.35 5.8 12.391 15.703 40.134 13.708 27.742-1.995 62.399 6.973 73.613-4.755 11.214-11.728 3.41-20.35-6.581-21.254" mask="url(#f20lfchd8b)"/>
                </g>
                <g>
                    <path fill="#F4AC64" d="M39.974 43.762c-1.586-5.43 3.302-11.655 3.302-11.655-2.424-2.146-5.39-3.588-8.577-4.17-1.666-.28-6.353-1.276-6.353-1.276l-3.77.006-3.769.006s-4.84.947-6.455 1.229c-2.96.687-5.709 2.077-8.015 4.055 0 0 4.368 7.323 2.8 12.757 0 0 1.283 8.814 2.057 12.13.398 1.704.024 7.065-.004 8.467-.04 2.007-.336 7.725-.736 12.637 0 0 4.526 2.685 14.214 2.898 9.59-.639 14.447-2.946 14.447-2.946-.618-5.85-1.017-10.773-1.26-12.678-.096-2.809-.027-5.621.206-8.423.219-2.408 1.913-13.037 1.913-13.037" transform="translate(-632 -405) translate(632 405) translate(36.4)"/>
                    <path fill="#E2CEB8" d="M25.361 32.59c-5.52.372-5.767-5.682-5.767-5.682s.39-.215.57-1.216c.103-.648.122-1.307.056-1.96-.064-.785-.179-1.566-.344-2.337-.993-4.81 8.503-2.643 8.503-2.643s.169 5.796 1.29 8.087c0 .004 1.212 5.375-4.308 5.75" transform="translate(-632 -405) translate(632 405) translate(36.4)"/>
                    <path fill="#455B27" d="M24.985 93.158l15.33-2.87s-.98-10.766-1.115-12.32c-.116-1.334-1.457-14.24-1.19-21.168 0 0-3.39-4.106-3.8-8.446l-9.432-.098h-.09l-9.45.233c-.397 4.34-4.052 8.356-4.052 8.356.102 7.33-.708 19.838-.82 21.173-.129 1.551-1.87 11.918-1.87 11.918l16.139 3.22v.077l.17-.039.17.039.01-.075z" transform="translate(-632 -405) translate(632 405) translate(36.4)"/>
                    <path fill="#000" d="M6.214 165.217c-.468 1.163-1.07 2.267-1.794 3.29-.822.935-3.971 2.608-3.983 5.378-.014 3.005 5.32 2.162 7.403 2.049 2.082-.114 2.24-1.719 3.115-3.422s1.76-1.416 1.922-2.789c.162-1.373-.68-4.442-.68-4.442l-5.983-.064z" transform="translate(-632 -405) translate(632 405) translate(36.4)"/>
                    <path fill="#455B27" d="M6.123 164.345l.164 1.545c1.923.62 3.992.616 5.913-.01l-.022-1.945-6.055.41z" transform="translate(-632 -405) translate(632 405) translate(36.4)"/>
                    <path fill="#000" d="M37.666 165.163c.471 1.16 1.078 2.263 1.805 3.284.825.93 3.98 2.594 4.002 5.364.023 3.005-5.31 2.18-7.396 2.074-2.086-.106-2.246-1.711-3.127-3.41-.882-1.7-1.766-1.411-1.933-2.783-.167-1.371.665-4.445.665-4.445l5.984-.084z" transform="translate(-632 -405) translate(632 405) translate(36.4)"/>
                    <path fill="#455B27" d="M37.755 164.291l-.158 1.546c-1.921.626-3.99.63-5.913.01l.016-1.944 6.055.388z" transform="translate(-632 -405) translate(632 405) translate(36.4)"/>
                    <path fill="#455B27" d="M42.111 125.76c.007 3.704-3.329 38.967-3.329 38.967-.368 1.236-6.775 1.17-8.011.556-1.237-.616.973-37.406.738-41.14-.234-3.735-6.86-29.84-7.943-29.714-1.084.126-6.64 32.362-7.5 35.203-.86 2.842-3.175 35.51-3.175 35.51-2.714 1.61-7.82.073-7.82.073s.339-36.553.708-37.541c.368-.989.275-3.829.383-13.09.08-6.922 2.604-27.082 3.875-36.829.047-.347.09-.68.131-.999.249-1.896.436-3.29.525-3.959l.06-.443c.347-.16.71-.308 1.088-.444 9.037-3.265 26.486.145 26.486.145l.03.247.108.9.428 3.623v.032l.017.136c.617 5.284 1.49 13.02 1.41 13.826-.118 1.237 1.786 31.236 1.791 34.94" transform="translate(-632 -405) translate(632 405) translate(36.4)"/>
                    <path fill="#9AAF7C" d="M29.163 57.806L24.757 57.813 20.347 57.821 16.245 61.936 16.267 74.443 24.782 74.429 33.296 74.414 33.275 61.906z" transform="translate(-632 -405) translate(632 405) translate(36.4)"/>
                    <g transform="translate(-632 -405) translate(632 405) translate(36.4) translate(35 27.728)">
                        <mask id="hac3li0vfd" fill="#fff">
                            <use xlink:href="#ly3tgj1sqc"/>
                        </mask>
                        <path fill="#F4AC64" d="M6.115 20.24S8.07 31.774 7.78 33.75c-.29 1.975-4.47 22.984-4.47 22.984l4.746 2.218s6.355-21.78 6.457-25.076c.101-3.296-.656-14.612-1.85-19.577-1.195-4.966-2.66-8.36-5.223-10.79C4.877 1.076.403.358.403.358l5.712 19.88z" mask="url(#hac3li0vfd)"/>
                    </g>
                    <path fill="#F4AC64" d="M8.366 48.023S6.45 59.564 6.746 61.54c.296 1.975 4.288 21.425 4.288 21.425l-4.48 3.78S.124 64.985.012 61.689c-.113-3.295.605-14.613 1.783-19.583 1.178-4.97 2.63-8.368 5.187-10.809 2.555-2.44 7.026-3.172 7.026-3.172L8.366 48.023z" transform="translate(-632 -405) translate(632 405) translate(36.4)"/>
                    <path fill="#455B27" d="M34.216 48.355s.428-11.421 4.896-19.174c-.726-.563-1.623-.86-2.541-.84 0 0-4.28 10.353-4.528 19.992-.248 9.64 2.173.022 2.173.022M15.246 48.49s-.445-12.64-4.705-19.356c0 0 1.046-1.081 2.187-.793 0 0 4.385 10.458 4.666 20.096.281 9.638-2.148.052-2.148.052" transform="translate(-632 -405) translate(632 405) translate(36.4)"/>
                    <path fill="#E2CEB8" d="M42.068 88.035c-1.259 1.513-3.16 2.34-5.126 2.23-3.806-.199-4.921-1.877-4.667-2.62.255-.741 9.254-1.402 9.793.39" transform="translate(-632 -405) translate(632 405) translate(36.4)"/>
                    <path fill="#E2CEB8" d="M40.912 89.086s2.84-.947 2.354-1.695c-.486-.747-2.136.389-2.136.389l-.218 1.306zM7.6 88.093c1.266 1.509 3.17 2.33 5.135 2.213 3.805-.21 4.915-1.893 4.657-2.635-.259-.742-9.255-1.372-9.791.422" transform="translate(-632 -405) translate(632 405) translate(36.4)"/>
                    <path fill="#E2CEB8" d="M8.764 89.145s-2.814-1.007-2.331-1.757c.483-.75 2.108.45 2.108.45l.223 1.307z" transform="translate(-632 -405) translate(632 405) translate(36.4)"/>
                    <path fill="#9FC966" d="M45.043 68.395c.005 3-2.422 5.435-5.422 5.44-3 .005-5.435-2.422-5.44-5.421-.004-3 2.422-5.435 5.422-5.44 3-.005 5.435 2.422 5.44 5.421" transform="translate(-632 -405) translate(632 405) translate(36.4)"/>
                    <path fill="#E6C538" d="M37.958 66.501c.005 2.999-2.423 5.434-5.422 5.438-2.998.005-5.433-2.422-5.438-5.421-.005-2.998 2.422-5.433 5.42-5.438 3-.005 5.435 2.422 5.44 5.421" transform="translate(-632 -405) translate(632 405) translate(36.4)"/>
                    <path fill="#9FC966" d="M34.315 63.895c.005 3-2.422 5.435-5.422 5.44-2.998.005-5.434-2.422-5.44-5.422-.004-2.999 2.423-5.435 5.422-5.44 3-.004 5.435 2.422 5.44 5.422" transform="translate(-632 -405) translate(632 405) translate(36.4)"/>
                    <path fill="#E6C538" d="M26.992 62.995c.005 3-2.422 5.435-5.422 5.44-2.999.005-5.435-2.422-5.44-5.422-.004-3 2.422-5.435 5.422-5.44 3-.004 5.435 2.423 5.44 5.422" transform="translate(-632 -405) translate(632 405) translate(36.4)"/>
                    <path fill="#E6C538" d="M34.324 68.982c.005 3-2.422 5.435-5.421 5.44-3 .006-5.435-2.422-5.44-5.42-.006-3 2.42-5.435 5.42-5.44 3-.006 5.435 2.42 5.44 5.42z" transform="translate(-632 -405) translate(632 405) translate(36.4)"/>
                    <path fill="#9FC966" d="M28.253 66.52c.005 2.999-2.422 5.434-5.421 5.439-3 .005-5.435-2.422-5.44-5.422-.005-2.998 2.422-5.434 5.42-5.44 3-.004 5.436 2.422 5.441 5.422z" transform="translate(-632 -405) translate(632 405) translate(36.4)"/>
                    <path fill="#9FC966" d="M22.88 69.818c.005 2.998-2.422 5.434-5.421 5.438-2.999.005-5.433-2.423-5.438-5.422-.005-2.998 2.422-5.433 5.42-5.438 3-.005 5.435 2.422 5.44 5.421z" transform="translate(-632 -405) translate(632 405) translate(36.4)"/>
                    <path fill="#E6C538" d="M21.687 67.757c.006 3-2.421 5.435-5.42 5.44-3 .006-5.436-2.422-5.441-5.42-.005-3 2.421-5.435 5.42-5.44h.001c3-.006 5.434 2.421 5.44 5.42" transform="translate(-632 -405) translate(632 405) translate(36.4)"/>
                    <path fill="#9FC966" d="M16.037 68.032c.005 3-2.422 5.435-5.421 5.44-3 .005-5.435-2.422-5.44-5.422-.005-3 2.422-5.435 5.422-5.44 3-.004 5.435 2.423 5.44 5.422" transform="translate(-632 -405) translate(632 405) translate(36.4)"/>
                    <path fill="#867059" d="M2.849 68.054L46.525 67.979 46.559 87.612 2.882 87.686z" transform="translate(-632 -405) translate(632 405) translate(36.4)"/>
                    <path fill="#E2CEB8" d="M29.252 17.065v.006c-.689 1.49-1.539 2.898-2.535 4.2-3.302 4.25-12.217 4.183-11.15-7.285.204-2.197.247-3.998.688-5.45 1.57-5.174 5.28-6.04 5.28-6.04 2.74-.156 7.54.514 9.145 4.08 1.137 2.537.323 6.742-1.428 10.489" transform="translate(-632 -405) translate(632 405) translate(36.4)"/>
                    <path fill="#331C04" d="M29.252 17.065v.006s-.396.107-1.825-2.767c-.287-.577-.505-.164-.63-.42l-2.27-.882s2.24-3.757-.7-4.794c-2.996-1.056-7.57.33-7.57.33 1.569-5.175 5.278-6.04 5.278-6.04 2.742-.157 7.54.514 9.146 4.08 1.133 2.535.321 6.74-1.43 10.487" transform="translate(-632 -405) translate(632 405) translate(36.4)"/>
                    <path fill="#E2CEB8" d="M26.327 12.14c.168-.78 1.705-1.452 2.363.221.657 1.673-1.528 3.453-2.107 3.086-.578-.368-.53-2.016-.256-3.307" transform="translate(-632 -405) translate(632 405) translate(36.4)"/>
                    <path fill="#867059" d="M31.173 12.258s-7.303-5.034-15.806-3.22c0 0 .49-10.635 10.175-8.832 9.104 1.697 5.94 10.851 5.63 12.052" transform="translate(-632 -405) translate(632 405) translate(36.4)"/>
                    <path fill="#867059" d="M26.481 9.976s-12.04 1.316-16.673.355c-4.632-.961 5.687-2.397 5.687-2.397s3.86-1.22 10.986 2.042" transform="translate(-632 -405) translate(632 405) translate(36.4)"/>
                    <path fill="#A88E71" d="M27.134 20.705s-1.965 5.288-6.97 4.99c.104-.65.122-1.308.057-1.96l.005-.006c2.691.39 5.369-.783 6.908-3.024" transform="translate(-632 -405) translate(632 405) translate(36.4)"/>
                </g>
            </g>
        </g>
    </g>
</svg>
