<svg xmlns="http://www.w3.org/2000/svg" xmlns:xlink="http://www.w3.org/1999/xlink" width="213" height="193" viewBox="0 0 213 193">
    <defs>
        <path id="3asyizx7pa" d="M0 0.675L212.717 0.675 212.717 54.6 0 54.6z"/>
        <path id="j1nwikyrcc" d="M0.357 0.321L16.08 0.321 16.08 23.389 0.357 23.389z"/>
    </defs>
    <g fill="none" fill-rule="evenodd">
        <g>
            <g>
                <path fill="#EEEBE9" d="M101.421 153.393s4.304-1.89 5.523-6.012c1.22-4.122 2.001-9.794 5.337-11.256 3.335-1.462 10.342-5.361 10.547-10.243.206-4.882-10.343-10.673-7.914-11.889 2.43-1.216 6.811-4.454 2.5-7.096-4.31-2.642-6.6-3.106-7.74-6.682-1.14-3.576-5.302-5.407-6.218.034-.916 5.44-3.493 6.683-2.933 11.222s3.169 8.805-4.107 9.817c-7.276 1.013-4.63 5.929-3.01 9.513 1.62 3.584 2.034 17.722 2.52 20.18.487 2.458 2.521 4.068 5.495 2.412" transform="translate(-270 -397) translate(270 397)"/>
                <path fill="#EEEBE9" d="M99.586 155.86s9.88-3.73 12.959-3.059c3.078.67 8.792 2.297 11.046-.28 2.255-2.577 4.075-11.263 11.312-10.29 7.236.973 9.905-.759 9.487-5.081-.417-4.323 11.31-10.876 9.196-13.254-2.114-2.378-18.097 2-22.846 3.663-4.748 1.662-9.35-2.133-11.974 2.478-2.623 4.61-11.394 8.553-14.313 7.76-2.92-.794-5.273-1.202-5.988 3.175-.715 4.377-3.664 7.06-4.442 9.78-.777 2.72-1.807 4.687 5.563 5.108" transform="translate(-270 -397) translate(270 397)"/>
                <path fill="#EEEBE9" d="M92.26 105.436c-.35-2.676-4.965-3.915-5.683-.56s.967 7.797-5.362 11.7c-6.329 3.905 3.344 8.516 5.717 13.2 2.372 4.685 1.953 9.83 3.925 13.893 1.973 4.063 1.512 11.959 4.933 10.157 3.42-1.802 2.314-6.101 4.286-10.818 1.972-4.718 8.56-5.823 4.139-10.869-4.421-5.045-9.632-7.951-5.345-14.307 1.894-2.803-5.516-4.073-6.61-12.396" transform="translate(-270 -397) translate(270 397)"/>
                <path fill="#C7C4C3" d="M93.58 153.175s3.417-3.196 1.67-10.067c-1.745-6.87-5.047-7.07 5.396-8.202 10.444-1.133 6.316-17.743 14.526-16.775s22.509-18.525 27.312-13.708c4.803 4.818-6.678 12.8-3.679 17.465 3 4.666 2.111 8.945-7.591 9.245-9.702.3.443 18.069-12.48 17.845-12.924-.224-14.928 16.05-25.153 4.197" transform="translate(-270 -397) translate(270 397)"/>
                <path fill="#C7C4C3" d="M81.098 181.886s4.303-1.89 5.523-6.013c1.22-4.123 2.002-9.794 5.337-11.255 3.335-1.462 10.342-5.361 10.547-10.244.206-4.882-10.343-10.673-7.914-11.888 2.43-1.215 6.811-4.454 2.5-7.096-4.31-2.642-6.6-3.106-7.74-6.681-1.14-3.576-5.302-5.408-6.218.032-.916 5.44-3.493 6.684-2.932 11.223.56 4.539 3.169 8.805-4.107 9.817-7.276 1.013-4.63 5.93-3.01 9.513 1.619 3.583 2.03 17.723 2.52 20.18.49 2.457 2.52 4.067 5.494 2.412" transform="translate(-270 -397) translate(270 397)"/>
                <path fill="#C7C4C3" d="M79.263 184.353s9.88-3.73 12.959-3.06c3.078.67 8.792 2.297 11.046-.28 2.255-2.576 4.075-11.263 11.311-10.29 7.236.973 9.905-.759 9.488-5.08-.417-4.322 11.31-10.876 9.195-13.255-2.114-2.378-18.096 2-22.845 3.663-4.749 1.662-9.352-2.133-11.975 2.478-2.623 4.612-11.395 8.554-14.313 7.762-2.918-.792-5.273-1.201-5.988 3.176-.714 4.377-3.664 7.059-4.441 9.779-.777 2.72-1.808 4.686 5.563 5.107" transform="translate(-270 -397) translate(270 397)"/>
                <path fill="#C7C4C3" d="M71.939 133.928c-.35-2.675-4.966-3.914-5.684-.56-.719 3.355.966 7.798-5.362 11.702-6.33 3.904 3.344 8.515 5.717 13.2 2.373 4.685 1.953 9.83 3.926 13.892 1.972 4.063 1.512 11.96 4.932 10.157 3.42-1.802 2.314-6.102 4.286-10.818 1.972-4.716 8.56-5.823 4.14-10.87-4.422-5.045-9.632-7.95-5.345-14.306 1.892-2.804-5.52-4.074-6.61-12.397" transform="translate(-270 -397) translate(270 397)"/>
                <path fill="#C7C4C3" d="M73.257 181.668s3.416-3.196 1.67-10.067c-1.746-6.87-5.048-7.07 5.395-8.203 10.444-1.132 6.316-17.742 14.525-16.774 8.21.968 22.509-18.525 27.312-13.708 4.804 4.816-6.677 12.8-3.678 17.465 2.999 4.666 2.11 8.945-7.592 9.244-9.702.3.443 18.07-12.48 17.846-12.922-.223-14.927 16.05-25.152 4.197" transform="translate(-270 -397) translate(270 397)"/>
                <g transform="translate(-270 -397) translate(270 397) translate(0 137.579)">
                    <mask id="vcrlhio8zb" fill="#fff">
                        <use xlink:href="#3asyizx7pa"/>
                    </mask>
                    <path fill="#EEEBE9" d="M191.236 5.466s-72.694-12.39-87.705 2.678C88.519 23.21 13.979 4.495.793 27.505c-5.955 10.392 22.02 28.132 71.32 24.558 49.302-3.573 110.89 12.492 130.818-8.519 19.928-21.01 6.06-36.456-11.695-38.078" mask="url(#vcrlhio8zb)"/>
                </g>
                <path fill="#000" d="M192.298 156.936c-.073 1.017-.252 2.024-.537 3.004-.328.655-1.153 3.948-1.575 4.578-.42.63-1.175 5.223.307 5.69 1.483.467 4.952 1.19 6.004-.687.877-1.542 1.178-3.344.849-5.086-.255-1.382-1.981-7.7-1.997-8.33-.015-.63-3.051.83-3.051.83" transform="translate(-270 -397) translate(270 397)"/>
                <path fill="#E2CEB8" d="M140.422 53.692c-.625-.216-1.261-.399-1.905-.55-.541-.1-1.296-.372-1.784-.482-1.042-.184-2.099-.268-3.156-.254-.603.33-1.23.61-1.876.84-.444.021-1.35-.055-1.31.361.038.417.84.726.84.726-.23.028-.419.196-.473.42-.113.354-.036.74.203 1.025 0 0-.376.338-.362.659-.014.364.118.718.367.984-.108.26-.126.547-.054.818.09.352.354.633.7.745 0 0 .032.791.42.94.349.079.709.099 1.064.059 1.755-.245 3.427-.906 4.875-1.927 1.194-.789 2.523-1.353 3.92-1.663l-1.469-2.7z" transform="translate(-270 -397) translate(270 397)"/>
                <path fill="#62696F" d="M123.709 62.413l11.246 15.733c.132-2.17.39-4.332.77-6.473.986-6.482 2.337-15.36-1.614-16.844-5.008-1.883-7.487 2.99-8.82 5.608-.23.514-.511 1.003-.84 1.46-.196.237-.453.415-.742.516zm14.388 21.948l-16.049-22.447.804-.683c.117.113.27.182.432.194.146-.021.277-.102.362-.222.267-.396.5-.813.7-1.246 1.376-2.706 4.24-8.335 10.133-6.12 4.755 1.787 3.387 10.774 2.289 17.995-.543 3.565-1.055 6.933-.566 8.082l1.895 4.447z" transform="translate(-270 -397) translate(270 397)"/>
                <path fill="#62696F" d="M121.853 94.099L111.322 65.281 103.335 61.879 120.112 53.003 121.136 57.243 140.482 84.244z" transform="translate(-270 -397) translate(270 397)"/>
                <path fill="#E2CEB8" d="M131.462 54.172s2.454-.597 3.14-.024c.686.572-.186.84-.186.84s.858-.28 1.153.44c.295.722-.745.98-.745.98.415 0 .753.335.755.75l-.001.044c.044.817-.867.815-.867.815s1.026.57.323 1.232c-.86.674-1.972.934-3.042.712 0 0-.437-.156-.429-.944-.602-.202-.927-.854-.724-1.456.016-.049.036-.097.059-.144 0 0-.853-1.026.01-1.65-.359-.39-.332-.997.06-1.355.137-.126.31-.21.494-.24" transform="translate(-270 -397) translate(270 397)"/>
                <path fill="#000" d="M171.615 164.878c-1.547.467-2.006 3.098-3.32 3.874-1.314.776-7.735 1.33-7.97-.683-.236-2.013 2.687-3.819 4-4.83 1.315-1.012 4.662-4.6 5.263-5.915.331.537.965.81 1.582.678 1.589-.131 1.96-.497 1.96-.497.257 1.584.49 2.66.648 3.266.556 1.694-.366 3.519-2.06 4.075l-.103.032" transform="translate(-270 -397) translate(270 397)"/>
                <path fill="#F4AC64" d="M171.899 27.321s-4.44.533-6.312 3.106c-1.872 2.573-2.483 6.502-2.896 7.803-.413 1.3-6.146 13.566-6.524 13.873-.379.306-5.631.109-8.789.204-4.435.133-9.72.034-9.72.034l.657 6.346s21.095.459 22.55-1.199c3.212-3.66 10.457-16.413 10.457-16.413s7.558-10.34.577-13.754" transform="translate(-270 -397) translate(270 397)"/>
                <path fill="#AF7B48" d="M164.448 41.826s-.427 5.699.725 9.413l1.245-1.788s-2.137-5.678-1.97-7.625" transform="translate(-270 -397) translate(270 397)"/>
                <path fill="#331C04" d="M184.587 13.944c-.182 2.99-.023 5.99.472 8.944.501 2.738 1.21 5.434 2.122 8.063l-7.26-2.46s-.478-13.93 4.666-14.547" transform="translate(-270 -397) translate(270 397)"/>
                <path fill="#455B27" d="M189.565 64.44s4.075 6.844 5.276 13.604c1.2 6.76 1.517 28.02 1.575 31.36.057 3.34.798 11.06.718 18.24-.07 6.326-.7 28.299-.7 28.299l-6.01-.896s-3.717-22.008-4.11-24.65c-.394-2.641-1.68-12.452-1.84-13.54-.16-1.087-8.396-30.493-8.405-35.369-.008-4.875 2.91-24.985 13.496-17.048" transform="translate(-270 -397) translate(270 397)"/>
                <path fill="#455B27" d="M167.696 66.966c-.28 1.553-4.415 28.266-4.792 31.745-.42 3.88-.996 10.483-.825 12.092.396 3.731 1.25 8.523 1.25 8.523l4.052 37.494 6.52-1.745s1.461-20.3 1.306-25.443c-.156-5.144-2.181-14.082-1.638-16.328.543-2.246 8.547-27.724 8.547-27.724s6.816-28.895-14.42-18.614" transform="translate(-270 -397) translate(270 397)"/>
                <path fill="#F4AC64" d="M168.034 64.21c-.265 1.847-1.45 8.814-1.45 8.814 12.198 3.901 26.377-1.524 26.377-1.524-.247-1.337-3.331-11.403-3.82-12.374-.891-2.26-1.065-4.74-.5-7.102.474-1.824 1.094-3.607 1.857-5.33.464-1.1.795-1.902 1.285-3.112 2.091-5.145 4.147-10.703 3.755-11.71-.69-1.782-4.06-2.59-5.678-2.87-1.62-.28-7.464-2.459-7.464-2.459l-6.222.01s-7.355 1.21-8.063 1.89c-1.427 1.373-2.62 8.629-2.62 8.629-2.666 5.903.57 10.48.968 11.76.669 2.32 1.149 4.689 1.435 7.086.201 2.76.248 5.527.14 8.291" transform="translate(-270 -397) translate(270 397)"/>
                <g transform="translate(-270 -397) translate(270 397) translate(171.5 .379)">
                    <mask id="k9v17u2a4d" fill="#fff">
                        <use xlink:href="#j1nwikyrcc"/>
                    </mask>
                    <path fill="#E2CEB8" d="M8.786.344c-2.23-.24-7.619 1.31-8.295 9.54-.675 8.23 1.319 12.361 3.145 13.25 1.824.89 6.89-.539 9.153-4.515 2.263-3.976 5.045-13.223 1.839-15.813C11.42.217 8.786.344 8.786.344" mask="url(#k9v17u2a4d)"/>
                </g>
                <path fill="#331C04" d="M174.472 8.81c-1.142.838-2.044 1.961-2.617 3.257 0 0-1.496-10.399 7.374-11.27 6.75-.662 9.207 3.566 8.439 8.424-.5 2.606-1.275 5.15-2.31 7.593 0 0-.578-2.012-1.782-2.069-1.204-.057-8.889-4.567-9.104-5.935" transform="translate(-270 -397) translate(270 397)"/>
                <path fill="#E2CEB8" d="M178.876 30.965c3.81-.006 4.663-4.003 4.663-4.003s-.84-5.39 1.288-8.99c2.128-3.601-8.639 5.797-8.639 5.797s.011.878-.041 1.93c-.014.963-.187 1.916-.513 2.823 0 0-.567 2.45 3.242 2.443M182.697 12.662c.407-.396 2.31-1.054 2.354 1.374.043 2.428-2.71 4.22-2.954 2.52-.247-1.7-.084-3.23.6-3.894" transform="translate(-270 -397) translate(270 397)"/>
                <path fill="#A88E71" d="M176.148 25.699c.132-.038.277-.083.435-.136 2.093-.695 3.923-2.018 5.238-3.789-3.365 1.99-5.634 1.985-5.634 1.985s.014.888-.039 1.94" transform="translate(-270 -397) translate(270 397)"/>
                <path fill="#455B27" d="M190.212 47.385s-5.805-3.3-8.182-7.198l-13.73-.906-3.165 6.572s4.31 9.15 1.448 27.173c-1.388 8.737 26.442-1.286 26.442-1.286s-4-14.169-2.813-24.355" transform="translate(-270 -397) translate(270 397)"/>
                <path fill="#455B27" d="M182.03 40.186s2.708-8.482 6.4-11.559c0 0-.98-.989-1.954-.63 0 0-2.84 1.56-7.464 11.993-4.622 10.432 3.019.196 3.019.196M168.3 39.28s.997-7.935 2.436-11.682l1.162-.28s-1.724 9.09-1.54 12.096c.185 3.006-2.058-.134-2.058-.134" transform="translate(-270 -397) translate(270 397)"/>
                <path fill="#000" d="M162.17 164.895s5.103-1.971 4.55-6.249c-.554-4.278-1.345-12.95-1.345-12.95s3.737 1.88 9.725.392c0 0-1.42 11.613-1.19 16.203.077 1.5-11.74 2.604-11.74 2.604M190.477 163.872c.577-1.716.682-3.555.302-5.325-.704-2.507-2.353-11.55-2.353-11.55s2.333 1.396 8.75-.014c0 0-.63 13.375.171 17.451l-6.87-.562z" transform="translate(-270 -397) translate(270 397)"/>
                <path fill="#E2CEB8" d="M184.425 69.164c-.245.261-.566.438-.917.506-.86.082-1.954-.787-2.744.189-.79.975 1.55 4.533 2.284 4.9.733.366 2.184-.583 3.587-2.84 1.402-2.257-2.21-2.755-2.21-2.755" transform="translate(-270 -397) translate(270 397)"/>
                <path fill="#E2CEB8" d="M181.077 69.569c-1.169.58-2.303 1.227-3.398 1.937-1.523.995-3.143 2.399-2.87 2.813.371.566 1.515-.7 3.093-1.581 1.452-.809 1.303-.39 1.303-.39s.036-.122-1.372 1.087c-1.514 1.3-3.123 2.892-2.795 3.267.206.235.21.285.836-.091-.314.298-.28.433-.166.585.576.789 3.097-.747 4.099-1.359-.766.474-1.278.91-.63 1.165.74.29 4.205-2.055 5.53-2.768 1.438-.777-3.63-4.665-3.63-4.665" transform="translate(-270 -397) translate(270 397)"/>
                <path fill="#F4AC64" d="M188.43 28.628s6.381.237 8.086 4.375c2.215 5.381 2.54 7.01 2.902 9.53.343 2.38 1.883 8.875 2.039 9.547.157.67 3.634 8.666 2.05 11.466-1.592 2.814-17.792 11.117-17.687 11.736.104.62-2.82-6.252-2.82-6.252s6.555-3.668 7.63-4.796c1.743-1.832 5.422-3.808 4.662-6.076-.894-2.663-3.578-11.65-4.2-12.966-.622-1.315-6.607-14.88-2.661-16.564" transform="translate(-270 -397) translate(270 397)"/>
                <path fill="#9FC966" d="M96.786 149.741c.877.167 4.26.513 5.82-3.656-.638.558-1.536.71-2.323.392-.997-.37-2.476.232-3.23 1.456.24-2.65-.25-4.468-.35-6.884-.016-.367-.018-.7-.01-1.007.6-.11 4.251-.973 4.025-5.684-.365.765-1.131 1.26-1.979 1.278-1.184.06-2.44 1.464-2.427 3.108-.234.641-.35 1.319-.342 2.001.067 1.241.223 2.476.468 3.695-.17-.371-.386-.72-.642-1.04-1.513-1.861-3.164-2.089-3.475-2.567 0 0-.583 2.124 1.773 3.552.982.542 1.828 1.3 2.471 2.218-.038 1.043-.255 2.072-.64 3.043-1.456 3.72.555 7.618.555 7.618l1.286-.795s-1.955-2.252-1.06-6.276c.033-.161.05-.298.08-.452M119.066 173.08c.876.168 4.26.513 5.82-3.656-.639.559-1.537.71-2.323.392-.997-.371-2.476.232-3.231 1.456.241-2.65-.25-4.467-.35-6.885-.015-.366-.017-.7-.01-1.006.6-.11 4.251-.973 4.025-5.684-.365.765-1.131 1.26-1.979 1.278-1.184.06-2.44 1.463-2.427 3.108-.234.641-.35 1.319-.342 2.001.067 1.241.223 2.476.468 3.695-.171-.371-.387-.72-.643-1.04-1.513-1.86-3.163-2.088-3.475-2.567 0 0-.583 2.124 1.773 3.552.982.541 1.827 1.3 2.47 2.218-.039 1.043-.255 2.072-.64 3.042-1.456 3.72.555 7.618.555 7.618l1.285-.794s-1.954-2.252-1.06-6.277c.037-.16.054-.297.084-.45M153.208 172.477c.876.167 4.26.513 5.82-3.657-.638.559-1.536.71-2.322.393-.998-.371-2.477.23-3.232 1.455.242-2.65-.25-4.467-.35-6.884-.015-.367-.016-.7-.01-1.006.6-.11 4.252-.973 4.026-5.685-.366.765-1.132 1.26-1.98 1.278-1.184.06-2.44 1.463-2.427 3.108-.234.641-.35 1.319-.342 2.001.068 1.241.224 2.476.469 3.695-.171-.371-.387-.72-.643-1.039-1.513-1.862-3.164-2.09-3.475-2.567 0 0-.583 2.123 1.773 3.551.982.541 1.827 1.3 2.47 2.218-.038 1.042-.254 2.071-.639 3.041-1.457 3.721.554 7.619.554 7.619l1.286-.795s-1.954-2.253-1.06-6.277c.037-.157.052-.295.082-.449M132.028 149.681c.876.166 4.26.512 5.82-3.657-.638.559-1.536.71-2.322.392-.998-.37-2.477.232-3.231 1.456.241-2.65-.25-4.467-.35-6.884-.016-.366-.017-.7-.01-1.006.6-.11 4.25-.974 4.025-5.684-.366.765-1.131 1.26-1.98 1.278-1.183.059-2.44 1.463-2.427 3.108-.233.641-.349 1.32-.341 2.001.066 1.241.223 2.476.468 3.694-.171-.37-.387-.72-.643-1.039-1.513-1.862-3.164-2.09-3.475-2.566 0 0-.583 2.123 1.772 3.55.982.542 1.827 1.301 2.471 2.219-.039 1.043-.255 2.071-.64 3.041-1.456 3.72.554 7.618.554 7.618l1.286-.794s-1.954-2.252-1.06-6.277c.036-.159.056-.297.083-.45M64.064 149.797c.876.167 4.258.513 5.82-3.657-.639.558-1.537.71-2.324.393-.997-.372-2.476.231-3.231 1.455.241-2.65-.25-4.467-.35-6.883-.015-.367-.017-.7-.01-1.007.6-.11 4.252-.972 4.026-5.684-.366.766-1.131 1.26-1.98 1.278-1.183.06-2.44 1.464-2.427 3.11-.233.64-.35 1.318-.341 2 .067 1.24.223 2.476.468 3.694-.17-.37-.386-.72-.643-1.039-1.512-1.862-3.164-2.09-3.474-2.567 0 0-.583 2.125 1.773 3.552.982.541 1.827 1.3 2.47 2.218-.038 1.043-.255 2.072-.64 3.041-1.456 3.72.555 7.618.555 7.618l1.286-.794s-1.954-2.252-1.06-6.276c.034-.161.05-.3.082-.452M32.945 150.375c.876.166 4.26.512 5.82-3.657-.638.559-1.536.71-2.322.392-.998-.372-2.477.231-3.231 1.455.241-2.65-.25-4.467-.35-6.883-.016-.367-.017-.7-.01-1.007.6-.11 4.252-.973 4.025-5.684-.366.765-1.131 1.26-1.979 1.278-1.184.06-2.44 1.464-2.428 3.108-.233.641-.349 1.319-.341 2.001.066 1.242.223 2.476.468 3.695-.171-.371-.387-.72-.643-1.039-1.513-1.861-3.163-2.089-3.475-2.567 0 0-.583 2.123 1.773 3.551.982.542 1.827 1.3 2.471 2.218-.039 1.043-.256 2.071-.64 3.042-1.457 3.72.554 7.618.554 7.618l1.286-.795s-1.954-2.252-1.06-6.276c.034-.158.052-.296.082-.45" transform="translate(-270 -397) translate(270 397)"/>
                <path fill="#C7C4C3" d="M54.09 160.168s9.65-10.744 21.292-.036l-21.291.036zM25.116 160.218s9.649-10.745 21.291-.037l-21.29.037zM86.027 158.911s9.65-10.744 21.292-.036l-21.292.036zM122.052 158.175s9.649-10.744 21.291-.036l-21.29.036zM144.206 181.04s9.65-10.745 21.292-.037l-21.292.036z" transform="translate(-270 -397) translate(270 397)"/>
                <path fill="#F1F9FF" d="M103.335 61.878S42.055 90.902 59.34 172.116l-28.535.049S21.853 76.425 108.51 59.14l-5.175 2.737z" transform="translate(-270 -397) translate(270 397)"/>
                <path fill="#9FC966" d="M52.182 174.101c.877.167 4.26.513 5.82-3.656-.638.558-1.536.71-2.322.392-.998-.371-2.477.231-3.232 1.455.242-2.649-.25-4.467-.35-6.884-.015-.367-.016-.7-.01-1.007.6-.11 4.252-.973 4.026-5.684-.366.766-1.132 1.26-1.98 1.279-1.183.058-2.44 1.463-2.427 3.108-.234.64-.35 1.318-.341 2 .067 1.241.223 2.476.468 3.695-.171-.371-.387-.72-.643-1.039-1.512-1.861-3.164-2.09-3.475-2.568 0 0-.583 2.124 1.774 3.552.982.541 1.827 1.3 2.47 2.219-.038 1.043-.254 2.07-.64 3.041-1.456 3.721.555 7.619.555 7.619l1.286-.795s-1.954-2.252-1.06-6.277c.034-.158.051-.297.081-.45" transform="translate(-270 -397) translate(270 397)"/>
                <path fill="#C7C4C3" d="M40.372 182.862s9.649-10.744 21.291-.036l-21.291.036z" transform="translate(-270 -397) translate(270 397)"/>
                <path fill="#9FC966" d="M41.97 162.765c.876.167 4.26.513 5.82-3.657-.639.559-1.537.71-2.323.393-.998-.372-2.477.232-3.231 1.456.241-2.65-.25-4.468-.35-6.884-.016-.367-.017-.7-.011-1.007.601-.11 4.253-.973 4.026-5.684-.366.766-1.131 1.26-1.98 1.279-1.183.058-2.44 1.463-2.427 3.107-.234.641-.35 1.319-.341 2.001.066 1.241.223 2.476.468 3.695-.172-.372-.387-.72-.643-1.039-1.513-1.861-3.164-2.09-3.475-2.568 0 0-.583 2.124 1.772 3.552.982.54 1.827 1.3 2.471 2.218-.039 1.042-.255 2.07-.64 3.04-1.456 3.722.554 7.619.554 7.619l1.286-.795s-1.954-2.252-1.06-6.276c.037-.158.053-.296.084-.45" transform="translate(-270 -397) translate(270 397)"/>
                <path fill="#C7C4C3" d="M30.288 172.166s9.648-10.745 21.29-.037l-21.29.037z" transform="translate(-270 -397) translate(270 397)"/>
                <path fill="#9FC966" d="M73.088 162.187c.876.166 4.26.512 5.82-3.657-.639.558-1.537.71-2.324.393-.997-.371-2.476.231-3.23 1.455.241-2.65-.25-4.468-.35-6.884-.016-.367-.017-.7-.01-1.007.6-.11 4.251-.973 4.025-5.684-.365.766-1.131 1.26-1.979 1.279-1.184.06-2.442 1.463-2.428 3.108-.233.64-.349 1.318-.341 2 .067 1.241.224 2.477.468 3.696-.17-.372-.386-.72-.642-1.04-1.513-1.861-3.164-2.089-3.475-2.567 0 0-.583 2.124 1.772 3.551.982.542 1.828 1.3 2.471 2.219-.038 1.043-.255 2.072-.64 3.041-1.456 3.721.555 7.618.555 7.618l1.286-.794s-1.955-2.252-1.06-6.277c.036-.16.052-.297.082-.45" transform="translate(-270 -397) translate(270 397)"/>
                <path fill="#C7C4C3" d="M108.181 181.776s9.649-10.744 21.291-.036l-21.29.036z" transform="translate(-270 -397) translate(270 397)"/>
                <path fill="#9FC966" d="M140.325 161.566c.876.166 4.26.512 5.82-3.658-.638.56-1.536.711-2.323.393-.997-.372-2.476.23-3.231 1.455.242-2.65-.25-4.467-.35-6.884-.015-.367-.017-.7-.01-1.006.6-.11 4.252-.973 4.026-5.684-.366.765-1.131 1.259-1.979 1.278-1.184.059-2.44 1.464-2.427 3.108-.234.641-.35 1.32-.341 2.001.066 1.241.223 2.477.468 3.695-.171-.371-.387-.72-.643-1.039-1.512-1.861-3.164-2.09-3.475-2.568 0 0-.583 2.124 1.773 3.551.982.542 1.827 1.301 2.47 2.219-.038 1.043-.255 2.071-.639 3.041-1.457 3.72.554 7.62.554 7.62l1.286-.795s-1.954-2.252-1.06-6.277c.034-.16.05-.3.081-.45" transform="translate(-270 -397) translate(270 397)"/>
                <path fill="#C7C4C3" d="M130.35 170.295s9.649-10.745 21.291-.037l-21.291.037z" transform="translate(-270 -397) translate(270 397)"/>
                <path fill="#9FC966" d="M104.3 162.133c.877.167 4.26.513 5.82-3.657-.638.56-1.536.711-2.322.393-.997-.371-2.476.231-3.231 1.456.241-2.65-.25-4.468-.35-6.884-.015-.367-.017-.7-.01-1.007.6-.11 4.252-.973 4.026-5.684-.366.765-1.131 1.26-1.979 1.278-1.184.06-2.44 1.463-2.427 3.108-.234.642-.35 1.32-.342 2.002.068 1.24.224 2.475.469 3.694-.171-.371-.387-.72-.643-1.04-1.513-1.861-3.164-2.089-3.475-2.567 0 0-.583 2.124 1.773 3.551.982.542 1.827 1.3 2.47 2.218-.038 1.043-.255 2.072-.639 3.042-1.457 3.72.554 7.618.554 7.618l1.286-.794s-1.954-2.253-1.06-6.277c.033-.159.05-.296.08-.45" transform="translate(-270 -397) translate(270 397)"/>
                <path fill="#C7C4C3" d="M94.325 171.033s9.65-10.745 21.291-.036l-21.29.036zM62.661 171.633s9.65-10.745 21.291-.036l-21.29.036z" transform="translate(-270 -397) translate(270 397)"/>
                <path fill="#9FC966" d="M83.301 173.522c.876.167 4.259.513 5.82-3.657-.639.558-1.537.71-2.323.393-.997-.371-2.476.231-3.231 1.456.241-2.65-.25-4.468-.35-6.885-.015-.366-.017-.7-.01-1.007.6-.11 4.252-.973 4.026-5.684-.366.766-1.131 1.26-1.979 1.279-1.184.058-2.44 1.463-2.428 3.108-.233.64-.349 1.318-.341 2.001.066 1.241.223 2.476.468 3.695-.171-.371-.387-.72-.643-1.04-1.513-1.861-3.164-2.088-3.475-2.566 0 0-.583 2.124 1.772 3.551.982.541 1.828 1.3 2.472 2.218-.04 1.043-.255 2.072-.64 3.042-1.457 3.72.554 7.618.554 7.618l1.286-.795s-1.955-2.252-1.06-6.277c.034-.16.051-.296.082-.45" transform="translate(-270 -397) translate(270 397)"/>
                <path fill="#C7C4C3" d="M72.397 182.381s9.649-10.744 21.291-.036l-21.291.036z" transform="translate(-270 -397) translate(270 397)"/>
            </g>
        </g>
    </g>
</svg>
